<svg width="34" height="34" viewBox="0 0 34 34" fill="none" xmlns="http://www.w3.org/2000/svg">
<path d="M16.9342 5.76477C10.6477 5.76477 5.53345 10.8794 5.53345 17.1656C5.53345 23.4519 10.648 28.5665 16.9342 28.5665C23.2207 28.5665 28.3353 23.4519 28.3353 17.1656C28.3353 10.8794 23.2207 5.76477 16.9342 5.76477ZM16.9342 27.3444C11.3216 27.3444 6.75517 22.7783 6.75517 17.1656C6.75517 11.553 11.3216 6.98651 16.9342 6.98651C22.5468 6.98651 27.1129 11.553 27.1129 17.1656C27.1129 22.7783 22.5468 27.3444 16.9342 27.3444Z" fill="black"/>
<path d="M19.815 15.3134L17.356 17.7724V9.02579C17.356 8.68833 17.0822 8.41492 16.7448 8.41492C16.4073 8.41492 16.1339 8.68833 16.1339 9.02579V19.2473C16.1339 19.2876 16.138 19.3279 16.1461 19.3675C16.1495 19.3848 16.1559 19.4007 16.161 19.4177C16.1671 19.439 16.1722 19.4607 16.181 19.4817C16.1895 19.5021 16.201 19.5203 16.2115 19.5397C16.22 19.5556 16.2271 19.5718 16.2372 19.5871C16.282 19.6542 16.3399 19.7118 16.407 19.7568C16.4195 19.7653 16.4331 19.7707 16.446 19.7778C16.4676 19.79 16.4886 19.8029 16.512 19.8127C16.5303 19.8202 16.5496 19.8246 16.5683 19.8304C16.5876 19.8361 16.6059 19.8436 16.6259 19.8473C16.6652 19.8551 16.7051 19.8595 16.7451 19.8595C16.7851 19.8595 16.8251 19.8554 16.8644 19.8473C16.8844 19.8432 16.903 19.8361 16.9223 19.83C16.9409 19.8243 16.9599 19.8202 16.9782 19.8127C17.0019 19.8029 17.0236 19.7897 17.0456 19.7772C17.0582 19.77 17.071 19.765 17.0832 19.7568C17.1175 19.7341 17.1493 19.7084 17.1778 19.6792L20.6793 16.1777C20.9178 15.9392 20.9178 15.5522 20.6793 15.3137C20.4404 15.0745 20.0539 15.0745 19.815 15.3134Z" fill="black"/>
<path d="M16.9345 3.06415C9.15894 3.06415 2.83313 9.39002 2.83313 17.166C2.83313 24.942 9.15894 31.2675 16.9345 31.2675C24.71 31.2675 31.0362 24.9416 31.0362 17.166C31.0362 9.39036 24.71 3.06415 16.9345 3.06415ZM16.9345 30.0451C9.83282 30.0451 4.05486 24.2674 4.05486 17.1657C4.05486 10.0639 9.83248 4.28589 16.9345 4.28589C24.0365 4.28589 29.8138 10.0639 29.8138 17.1657C29.8138 24.2674 24.0362 30.0451 16.9345 30.0451Z" fill="black"/>
</svg>
