<svg width="32" height="32" viewBox="0 0 32 32" fill="none" xmlns="http://www.w3.org/2000/svg">
<path d="M13.8101 13.2929C16.8047 13.2929 19.2407 10.857 19.2407 7.86265C19.2407 4.86896 16.8044 2.43335 13.8101 2.43335C10.8167 2.43335 8.38141 4.86896 8.38141 7.86265C8.38141 10.857 10.8167 13.2929 13.8101 13.2929ZM13.8101 3.40031C16.2718 3.40031 18.274 5.40223 18.274 7.86297C18.274 10.3244 16.2715 12.3266 13.8101 12.3266C11.3496 12.3266 9.34805 10.3244 9.34805 7.86297C9.34805 5.40223 11.3496 3.40031 13.8101 3.40031Z" fill="black"/>
<path d="M28.4833 23.1939H27.0385V15.7743C27.0385 15.6505 26.9915 15.5319 26.9061 15.442L25.7226 14.1919C26.0935 13.4459 25.9295 12.5157 25.2664 11.9547L23.9485 10.8395C23.5706 10.5202 23.0914 10.3672 22.5991 10.4078C22.1058 10.4487 21.6579 10.6794 21.3383 11.0574C20.6793 11.8365 20.777 13.0074 21.5561 13.667L22.8736 14.7828C23.221 15.0763 23.6456 15.2197 24.0687 15.2197C24.4231 15.2197 24.775 15.1163 25.0795 14.9185L26.0719 15.9669V23.1945H23.325C23.199 18.1396 19.0505 14.0652 13.9657 14.0652C8.88148 14.0652 4.73363 18.1396 4.60764 23.1945H3.40385C3.13674 23.1945 2.92053 23.411 2.92053 23.6778V28.9708C2.92053 29.2379 3.13674 29.4542 3.40385 29.4542H28.4833C28.7501 29.4542 28.9667 29.2379 28.9667 28.9708V23.6778C28.9667 23.4104 28.7501 23.1939 28.4833 23.1939ZM23.4981 14.0443L22.1805 12.9285C21.808 12.613 21.7613 12.0533 22.0765 11.6808C22.2292 11.5001 22.4431 11.3899 22.679 11.3706C22.7038 11.3686 22.7286 11.3677 22.7534 11.3677C22.9622 11.3677 23.163 11.4408 23.3241 11.5771L24.6419 12.6923C25.0141 13.0074 25.0608 13.5674 24.7453 13.9402C24.4309 14.3124 23.8702 14.3591 23.4981 14.0443ZM13.9657 15.0309C18.5176 15.0309 22.2327 18.6716 22.3584 23.1935H5.57428C5.69962 18.6719 9.41442 15.0309 13.9657 15.0309ZM28 28.4869H3.88717V24.1605H28V28.4869Z" fill="black"/>
</svg>
