<svg width="34" height="34" viewBox="0 0 34 34" fill="none" xmlns="http://www.w3.org/2000/svg">
<path d="M24.1638 13.3518L17.2074 8.46942C17.121 8.40793 17.0176 8.37488 16.9116 8.37488C16.8056 8.37488 16.7022 8.40793 16.6158 8.46942L9.8328 13.3552C9.74476 13.4182 9.67905 13.5075 9.64515 13.6103C9.61126 13.7131 9.61095 13.824 9.64427 13.927C9.67759 14.03 9.7428 14.1197 9.83049 14.1832C9.91817 14.2466 10.0238 14.2806 10.132 14.28H11.22V23.63C11.22 23.7653 11.2737 23.895 11.3694 23.9906C11.465 24.0863 11.5947 24.14 11.73 24.14H22.27C22.4053 24.14 22.535 24.0863 22.6306 23.9906C22.7263 23.895 22.78 23.7653 22.78 23.63V14.28H23.8714C23.98 14.2801 24.0857 14.2456 24.1733 14.1814C24.2609 14.1173 24.3257 14.0268 24.3583 13.9233C24.3909 13.8197 24.3897 13.7084 24.3547 13.6057C24.3197 13.5029 24.2528 13.414 24.1638 13.3518ZM21.76 13.77V23.12H12.24V13.77C12.24 13.6348 12.1863 13.505 12.0906 13.4094C11.995 13.3138 11.8653 13.26 11.73 13.26H11.713L16.9184 9.52002L22.2564 13.26C22.1235 13.2636 21.9973 13.3189 21.9045 13.4141C21.8118 13.5094 21.7599 13.6371 21.76 13.77Z" fill="black"/>
<path d="M14.62 15.47V19.55C14.62 19.6853 14.6737 19.815 14.7694 19.9106C14.865 20.0063 14.9947 20.06 15.13 20.06H19.21C19.3453 20.06 19.475 20.0063 19.5706 19.9106C19.6663 19.815 19.72 19.6853 19.72 19.55V15.47C19.72 15.3348 19.6663 15.205 19.5706 15.1094C19.475 15.0138 19.3453 14.96 19.21 14.96H15.13C14.9947 14.96 14.865 15.0138 14.7694 15.1094C14.6737 15.205 14.62 15.3348 14.62 15.47ZM15.64 15.98H18.7V19.04H15.64V15.98Z" fill="black"/>
<path d="M28.6484 7.33382C28.647 7.26533 28.6319 7.19782 28.6038 7.13531C28.5758 7.07281 28.5355 7.01659 28.4852 6.97002C28.435 6.92376 28.376 6.88792 28.3118 6.86458C28.2476 6.84124 28.1795 6.83085 28.1112 6.83402C19.6894 7.31342 17.6562 1.61162 17.5746 1.36002C17.5394 1.26027 17.4739 1.17396 17.3874 1.11304C17.3009 1.05212 17.1976 1.01962 17.0918 1.02002H16.9082C16.8025 1.02011 16.6995 1.05281 16.613 1.11366C16.5266 1.17452 16.4611 1.26055 16.4254 1.36002C16.3438 1.60142 14.3038 7.30662 5.88542 6.83062C5.81732 6.82696 5.74918 6.837 5.68503 6.86014C5.62088 6.88327 5.56202 6.91904 5.51193 6.96532C5.46185 7.0116 5.42155 7.06746 5.39343 7.12959C5.36531 7.19171 5.34994 7.25885 5.34822 7.32702C5.34822 7.62962 5.16802 14.7832 5.34822 17.2414C5.73582 22.44 7.35422 28.356 16.4288 32.5924C16.5011 32.6263 16.5803 32.6426 16.66 32.64H17.34C17.414 32.64 17.4872 32.6237 17.5542 32.5924C26.6458 28.356 28.2642 22.44 28.6484 17.2482C28.8286 14.79 28.6552 7.63642 28.6484 7.33382ZM27.6284 17.17C27.268 22.066 25.7482 27.608 17.2414 31.62H16.7586C8.25862 27.608 6.73202 22.066 6.36822 17.1734C6.21862 15.1334 6.32062 9.60502 6.36822 7.88122H6.86122C13.3212 7.88122 16.082 4.22622 17.0102 2.52962C17.9588 4.26702 20.8182 8.06142 27.6522 7.87442C27.6794 9.60162 27.7814 15.1402 27.6318 17.17H27.6284Z" fill="black"/>
</svg>
