<svg width="24" height="24" viewBox="0 0 24 24" fill="none" xmlns="http://www.w3.org/2000/svg">
<path d="M15.5303 13.5303C15.8232 13.2374 15.8232 12.7626 15.5303 12.4697C15.2374 12.1768 14.7626 12.1768 14.4697 12.4697L15.5303 13.5303ZM11 17L10.4697 17.5303C10.7626 17.8232 11.2374 17.8232 11.5303 17.5303L11 17ZM9.53033 14.4697C9.23744 14.1768 8.76256 14.1768 8.46967 14.4697C8.17678 14.7626 8.17678 15.2374 8.46967 15.5303L9.53033 14.4697ZM14.4697 12.4697L10.4697 16.4697L11.5303 17.5303L15.5303 13.5303L14.4697 12.4697ZM11.5303 16.4697L9.53033 14.4697L8.46967 15.5303L10.4697 17.5303L11.5303 16.4697Z" fill="#A7D3AD"/>
<path d="M18 21H6C5.44772 21 5 20.5523 5 20L5 4C5 3.44772 5.44772 3 6 3L13.5631 3C13.8416 3 14.1076 3.11619 14.2968 3.32059L18.7338 8.11246C18.9049 8.29731 19 8.53995 19 8.79187L19 20C19 20.5523 18.5523 21 18 21Z" stroke="#A7D3AD" stroke-width="1.5" stroke-linecap="round" stroke-linejoin="round"/>
<path d="M19 9L14 9C13.4477 9 13 8.55228 13 8L13 3" stroke="#A7D3AD" stroke-width="1.5" stroke-linecap="round" stroke-linejoin="round"/>
</svg>
