<svg width="24" height="24" viewBox="0 0 24 24" fill="none" xmlns="http://www.w3.org/2000/svg">
<path d="M19.6585 9.70119L12.6585 3.57619C12.2815 3.24629 11.7185 3.24629 11.3415 3.57619L4.3415 9.70119C4.12448 9.89108 4 10.1654 4 10.4538V19C4 19.5523 4.44772 20 5 20H19C19.5523 20 20 19.5523 20 19V10.4538C20 10.1654 19.8755 9.89108 19.6585 9.70119Z" stroke="#A7D3AD" stroke-width="1.5" stroke-linecap="round" stroke-linejoin="round"/>
<path d="M15.5303 11.5303C15.8232 11.2374 15.8232 10.7626 15.5303 10.4697C15.2374 10.1768 14.7626 10.1768 14.4697 10.4697L15.5303 11.5303ZM11 15L10.4697 15.5303C10.7626 15.8232 11.2374 15.8232 11.5303 15.5303L11 15ZM9.53033 12.4697C9.23744 12.1768 8.76256 12.1768 8.46967 12.4697C8.17678 12.7626 8.17678 13.2374 8.46967 13.5303L9.53033 12.4697ZM14.4697 10.4697L10.4697 14.4697L11.5303 15.5303L15.5303 11.5303L14.4697 10.4697ZM11.5303 14.4697L9.53033 12.4697L8.46967 13.5303L10.4697 15.5303L11.5303 14.4697Z" fill="#A7D3AD"/>
</svg>
