<svg width="40" height="40" viewBox="0 0 40 40" fill="none" xmlns="http://www.w3.org/2000/svg">
<path d="M20 40C31.0457 40 40 31.0457 40 20C40 8.9543 31.0457 0 20 0C8.9543 0 0 8.9543 0 20C0 31.0457 8.9543 40 20 40Z" fill="url(#paint0_linear_50_180)"/>
<path d="M16.3333 29.1667C15.6854 29.1667 15.7955 28.922 15.572 28.3051L13.6666 22.0343L28.3333 13.3333" fill="#C8DAEA"/>
<path d="M16.3334 29.1667C16.8334 29.1667 17.0543 28.938 17.3334 28.6667L20 26.0737L16.6737 24.0678" fill="#A9C9DD"/>
<path d="M16.6733 24.0683L24.7333 30.0232C25.653 30.5306 26.3168 30.2679 26.5459 29.1692L29.8268 13.7087C30.1627 12.362 29.3134 11.7512 28.4335 12.1507L9.16855 19.5792C7.85353 20.1067 7.8612 20.8403 8.92885 21.1672L13.8727 22.7103L25.3182 15.4894C25.8585 15.1618 26.3544 15.3379 25.9474 15.6992" fill="url(#paint1_linear_50_180)"/>
<defs>
<linearGradient id="paint0_linear_50_180" x1="15.002" y1="1.668" x2="5.002" y2="25" gradientUnits="userSpaceOnUse">
<stop stop-color="#37AEE2"/>
<stop offset="1" stop-color="#1E96C8"/>
</linearGradient>
<linearGradient id="paint1_linear_50_180" x1="17.4963" y1="21.2285" x2="19.6332" y2="28.141" gradientUnits="userSpaceOnUse">
<stop stop-color="#EFF7FC"/>
<stop offset="1" stop-color="white"/>
</linearGradient>
</defs>
</svg>
