<svg width="40" height="40" viewBox="0 0 40 40" fill="none" xmlns="http://www.w3.org/2000/svg">
<path d="M0 20C0 8.9543 8.9543 0 20 0C31.0457 0 40 8.9543 40 20C40 31.0457 31.0457 40 20 40C8.9543 40 0 31.0457 0 20Z" fill="#4C6C91"/>
<path d="M21.0463 26.5634C21.0463 26.5634 21.4313 26.5214 21.6285 26.3135C21.809 26.123 21.8027 25.7635 21.8027 25.7635C21.8027 25.7635 21.7787 24.0848 22.5728 23.8369C23.3553 23.5932 24.3601 25.4603 25.4265 26.1783C26.232 26.7211 26.8435 26.6023 26.8435 26.6023L29.693 26.5634C29.693 26.5634 31.183 26.4733 30.4766 25.3231C30.4182 25.2288 30.0645 24.4719 28.3585 22.9172C26.5711 21.2897 26.8111 21.5529 28.9626 18.7374C30.2732 17.0229 30.797 15.9761 30.6332 15.5285C30.4777 15.1004 29.5136 15.2141 29.5136 15.2141L26.3061 15.2336C26.3061 15.2336 26.0682 15.2018 25.8919 15.3053C25.7197 15.4067 25.6081 15.6432 25.6081 15.6432C25.6081 15.6432 25.101 16.9696 24.4238 18.0983C22.9954 20.4785 22.4246 20.6045 22.1909 20.457C21.6473 20.1119 21.7829 19.0723 21.7829 18.3338C21.7829 16.0263 22.1398 15.0646 21.089 14.8157C20.7405 14.7327 20.4839 14.6784 19.5917 14.6692C18.4471 14.658 17.4788 14.6733 16.93 14.9365C16.5648 15.1117 16.2831 15.5029 16.4552 15.5255C16.6671 15.5531 17.147 15.6525 17.4016 15.9925C17.7303 16.4319 17.7188 17.4172 17.7188 17.4172C17.7188 17.4172 17.9077 20.1334 17.2774 20.4704C16.8455 20.7018 16.2528 20.2297 14.9788 18.0696C14.3267 16.9635 13.8342 15.7405 13.8342 15.7405C13.8342 15.7405 13.7392 15.5121 13.5692 15.3892C13.3636 15.2407 13.0767 15.1946 13.0767 15.1946L10.0288 15.2141C10.0288 15.2141 9.57079 15.2264 9.4028 15.422C9.25359 15.5951 9.39132 15.9546 9.39132 15.9546C9.39132 15.9546 11.7776 21.4352 14.4801 24.1975C16.9582 26.7293 19.7712 26.5634 19.7712 26.5634H21.0463Z" fill="white"/>
</svg>
