<svg width="121" height="59" xmlns="http://www.w3.org/2000/svg">
 <g>
  <title>background</title>
  <rect x="-1" y="-1" width="123" height="61" id="canvas_background" fill="none"/>
 </g>

 <g>
  <title>Layer 1</title>
  <path d="m18.41,38.21c5.6933,-1.82 10.43,-4.6433 14.21,-8.47c1.68,-1.68 3.1033,-3.5 4.27,-5.46c1.2133,-1.96 2.38,-3.8967 3.5,-5.81c1.12,-1.96 2.2867,-3.8267 3.5,-5.6c1.2133,-1.82 2.6833,-3.40667 4.41,-4.76c0.6067,1.26 0.91,2.7533 0.91,4.48c0,1.5867 -0.28,3.36 -0.84,5.32c-0.56,1.9133 -1.3533,3.85 -2.38,5.81c-1.0267,1.9133 -2.31,3.8033 -3.85,5.67c-1.4933,1.82 -3.1967,3.43 -5.11,4.83c-1.8667,1.4 -3.9433,2.5433 -6.23,3.43c-2.2867,0.84 -4.7133,1.26 -7.28,1.26c-0.42,0 -0.8633,-0.0233 -1.33,-0.07c-0.42,0 -0.84,-0.0233 -1.26,-0.07c-0.42,-0.0933 -0.84,-0.1867 -1.26,-0.28c-0.42,-0.0933 -0.84,-0.1867 -1.26,-0.28zm-11.34,0.7c-1.49333,0 -2.54333,-0.14 -3.15,-0.42c-0.56,-0.2333 -0.84,-0.4667 -0.84,-0.7c0,-0.3267 0.35,-0.63 1.05,-0.91c0.7,-0.28 1.72667,-0.42 3.08,-0.42c0.56,0 1.16667,0.0467 1.82,0.14c0.7,0.0933 1.3767,0.2333 2.03,0.42c0.6533,0.14 1.26,0.3033 1.82,0.49c0.6067,0.1867 1.12,0.3733 1.54,0.56c-0.7933,0.2333 -1.8667,0.42 -3.22,0.56c-1.35333,0.1867 -2.73,0.28 -4.13,0.28zm27.93,-33.25c0.0467,2.42667 -0.49,4.76 -1.61,7c-1.12,2.24 -2.52,4.2233 -4.2,5.95c-1.68,1.7267 -3.5,3.1033 -5.46,4.13c-1.96,1.0267 -3.7567,1.54 -5.39,1.54c-1.1667,0 -2.17,-0.3267 -3.01,-0.98c-0.84,-0.7 -1.26,-1.7267 -1.26,-3.08c0,-0.98 0.2567,-2.1233 0.77,-3.43c0.5133,-1.3067 1.26,-2.66 2.24,-4.06c0.98,-1.4467 2.1467,-2.84667 3.5,-4.2c1.3533,-1.4 2.8933,-2.63667 4.62,-3.71c1.7267,-1.07333 3.5933,-1.93667 5.6,-2.59c2.0067,-0.7 4.13,-1.05 6.37,-1.05c2.5667,0 4.7367,0.53667 6.51,1.61c1.7733,1.02666 3.15,2.38 4.13,4.06c-3.0333,2.75333 -5.53,5.2967 -7.49,7.63c-1.9133,2.2867 -3.57,4.4333 -4.97,6.44c-1.4,1.96 -2.6833,3.8033 -3.85,5.53c-1.12,1.68 -2.4033,3.2433 -3.85,4.69c-0.8867,0.8867 -1.75,1.6567 -2.59,2.31c-0.7933,0.6533 -1.6333,1.2367 -2.52,1.75c-0.84,0.4667 -1.75,0.91 -2.73,1.33c-0.98,0.3733 -2.0767,0.7467 -3.29,1.12c-1.2133,-0.5133 -2.66,-0.98 -4.34,-1.4c-1.68,-0.4667 -3.47667,-0.7 -5.39,-0.7c-1.44667,0 -2.61333,0.1633 -3.5,0.49c-0.88667,0.3267 -1.33,0.9333 -1.33,1.82c0,0.7933 0.56,1.3067 1.68,1.54c1.16667,0.28 2.59,0.42 4.27,0.42c1.16667,0 2.3567,-0.07 3.57,-0.21c1.2133,-0.14 2.87,-0.4433 4.97,-0.91c0.8867,0.3733 1.9133,0.6533 3.08,0.84c1.1667,0.2333 2.4967,0.35 3.99,0.35c2.8933,0 5.5533,-0.4667 7.98,-1.4c2.4267,-0.8867 4.62,-2.0533 6.58,-3.5c2.0067,-1.4933 3.7567,-3.1967 5.25,-5.11c1.54,-1.9133 2.8233,-3.8733 3.85,-5.88c1.0267,-2.0533 1.7967,-4.06 2.31,-6.02c0.5133,-2.0067 0.77,-3.8267 0.77,-5.46c0,-0.7933 -0.0933,-1.6567 -0.28,-2.59c-0.14,-0.98 -0.3733,-1.86667 -0.7,-2.66c1.0733,-0.79333 2.2633,-1.58667 3.57,-2.38c1.3067,-0.79333 2.5433,-1.44667 3.71,-1.96l-0.42,-0.91c-1.3533,0.46667 -2.66,1.07333 -3.92,1.82c-1.26,0.7 -2.4267,1.44667 -3.5,2.24c-0.9333,-1.86667 -2.38,-3.31333 -4.34,-4.34c-1.96,-1.02667 -4.3867,-1.54 -7.28,-1.54c-3.22,0 -6.3,0.53667 -9.24,1.61c-2.94,1.07333 -5.53,2.52 -7.77,4.34c-2.24,1.77333 -4.0367,3.82667 -5.39,6.16c-1.3067,2.2867 -1.96,4.6433 -1.96,7.07c0,3.92 1.89,5.88 5.67,5.88c2.1933,0 4.3633,-0.6067 6.51,-1.82c2.1933,-1.26 4.13,-2.8467 5.81,-4.76c1.68,-1.9133 2.9867,-4.0133 3.92,-6.3c0.98,-2.3333 1.3767,-4.57333 1.19,-6.72l-0.84,0zm23.293,15.4c0.3734,0 0.7,-0.1167 0.98,-0.35c0.28,-0.28 0.42,-0.7 0.42,-1.26c0,-0.4667 -0.1166,-0.77 -0.35,-0.91c-0.1866,-0.14 -0.4666,-0.21 -0.84,-0.21c-0.9333,0 -1.4,0.5367 -1.4,1.61c0,0.7467 0.3967,1.12 1.19,1.12zm-11.83,10.57c0.6534,-0.6533 1.2367,-1.1667 1.75,-1.54c0.5134,-0.42 1.05,-0.8633 1.61,-1.33c-1.0733,1.2133 -2.03,2.4967 -2.87,3.85c-0.8866,1.3067 -1.33,2.5667 -1.33,3.78c0,0.6533 0.14,1.12 0.42,1.4c0.2334,0.2333 0.6067,0.35 1.12,0.35c1.1667,0 2.66,-0.6533 4.48,-1.96c1.8667,-1.3533 4.06,-3.1267 6.58,-5.32l0,-1.54c-0.84,0.7467 -1.7966,1.5867 -2.87,2.52c-1.0733,0.8867 -2.1466,1.7267 -3.22,2.52c-1.0733,0.7467 -2.0533,1.4 -2.94,1.96c-0.8866,0.5133 -1.54,0.77 -1.96,0.77c-0.3266,0 -0.49,-0.0933 -0.49,-0.28c0,-0.14 0.14,-0.35 0.42,-0.63c0.2334,-0.3267 0.5367,-0.7 0.91,-1.12l8.54,-9.59l-4.13,0c-1.0266,0.6533 -2.1233,1.4467 -3.29,2.38c-1.12,0.8867 -2.03,1.6333 -2.73,2.24l0,1.54zm22.2775,-4.34c0,0.7 -0.4433,1.61 -1.33,2.73c-0.8866,1.12 -1.9133,2.2167 -3.08,3.29c-1.1666,1.0267 -2.3333,1.9367 -3.5,2.73c-1.1666,0.7467 -2.03,1.12 -2.59,1.12c-0.6533,0 -0.98,-0.3267 -0.98,-0.98c0,-0.56 0.3734,-1.3767 1.12,-2.45c0.7934,-1.12 1.7267,-2.2167 2.8,-3.29c1.12,-1.12 2.2634,-2.0767 3.43,-2.87c1.2134,-0.84 2.24,-1.26 3.08,-1.26c0.28,0 0.5134,0.0933 0.7,0.28c0.2334,0.1867 0.35,0.42 0.35,0.7zm7.7,2.03c-0.98,0.8867 -2.03,1.7967 -3.15,2.73c-1.12,0.9333 -2.1933,1.7733 -3.22,2.52c-0.98,0.7467 -1.8666,1.3533 -2.66,1.82c-0.7466,0.4667 -1.2366,0.7 -1.47,0.7c-0.14,0 -0.21,-0.07 -0.21,-0.21c0,-0.28 0.3267,-0.8167 0.98,-1.61l8.61,-9.94l-4.06,0.35l-1.4,1.61c0,-0.6533 -0.14,-1.12 -0.42,-1.4c-0.28,-0.3267 -0.8866,-0.49 -1.82,-0.49c-0.9333,0 -2.0766,0.1867 -3.43,0.56c-1.3533,0.3733 -2.66,0.9567 -3.92,1.75c-1.26,0.7467 -2.3333,1.7033 -3.22,2.87c-0.8866,1.1667 -1.33,2.5433 -1.33,4.13c0,1.26 0.2334,2.1467 0.7,2.66c0.42,0.5133 1.0267,0.77 1.82,0.77c0.98,0 1.9367,-0.3033 2.87,-0.91c0.98,-0.6067 2.1934,-1.5167 3.64,-2.73c-0.28,1.0733 -0.42,1.8667 -0.42,2.38c0,0.8867 0.4667,1.33 1.4,1.33c1.0734,0 2.52,-0.7 4.34,-2.1c1.82,-1.4467 3.9434,-3.1967 6.37,-5.25l0,-1.54zm0.4736,8.68c1.2134,-1.2133 2.59,-2.4967 4.13,-3.85c1.54,-1.4 3.0334,-2.66 4.48,-3.78c1.4467,-1.1667 2.7767,-2.1233 3.99,-2.87c1.2134,-0.7467 2.1,-1.12 2.66,-1.12c0.1867,0 0.28,0.07 0.28,0.21c0,0.1867 -0.1866,0.49 -0.56,0.91c-0.3733,0.42 -0.7933,0.8867 -1.26,1.4l-8.19,9.1l3.92,0c1.3067,-1.4 2.8,-2.8 4.48,-4.2c1.7267,-1.4 3.3834,-2.6367 4.97,-3.71c1.5867,-1.0733 2.9867,-1.9367 4.1999,-2.59c1.213,-0.7 1.983,-1.05 2.31,-1.05c0.233,0 0.35,0.07 0.35,0.21c0,0.1867 -0.163,0.4667 -0.49,0.84c-0.327,0.3267 -0.7,0.7 -1.12,1.12c-0.42,0.42 -0.863,0.84 -1.3299,1.26c-0.42,0.3733 -0.7466,0.6767 -0.98,0.91c-1.2133,1.2133 -2.0533,2.31 -2.52,3.29c-0.42,0.9333 -0.63,1.7967 -0.63,2.59c0,1.0733 0.5834,1.61 1.75,1.61c1.2134,0 2.7529,-0.7 4.6199,-2.1c1.867,-1.4467 4.037,-3.22 6.51,-5.32l0,-1.54c-1.12,0.98 -2.24,1.96 -3.36,2.94c-1.12,0.9333 -2.193,1.7733 -3.22,2.52c-1.027,0.7 -1.9365,1.2833 -2.7299,1.75c-0.7933,0.4667 -1.4233,0.7 -1.89,0.7c-0.42,0 -0.63,-0.0933 -0.63,-0.28c0,-0.28 0.21,-0.63 0.63,-1.05c0.42,-0.42 0.91,-0.8633 1.47,-1.33c0.6067,-0.4667 1.19,-0.91 1.7499,-1.33c0.56,-0.4667 0.98,-0.84 1.26,-1.12c0.98,-0.9333 1.61,-1.82 1.89,-2.66c0.28,-0.84 0.42,-1.5867 0.42,-2.24c0,-0.7 -0.117,-1.1667 -0.35,-1.4c-0.233,-0.28 -0.607,-0.42 -1.12,-0.42c-0.56,0 -1.237,0.1633 -2.03,0.49c-0.7932,0.3267 -1.6565,0.77 -2.5899,1.33c-0.8866,0.56 -1.82,1.19 -2.8,1.89c-0.98,0.7 -1.96,1.4233 -2.94,2.17c0.3734,-0.6067 0.7467,-1.2833 1.12,-2.03c0.3734,-0.7467 0.56,-1.5633 0.56,-2.45c0,-0.5133 -0.1166,-0.8633 -0.35,-1.05c-0.1866,-0.2333 -0.5833,-0.35 -1.19,-0.35c-1.4,0 -2.8466,0.5367 -4.34,1.61c-1.4933,1.0267 -3.0333,2.1467 -4.62,3.36c0.3267,-0.6067 0.5834,-1.2133 0.77,-1.82c0.2334,-0.6067 0.35,-1.1667 0.35,-1.68c0,-1.0267 -0.49,-1.54 -1.47,-1.54c-1.0733,0.0467 -2.2633,0.5133 -3.57,1.4c-1.26,0.8867 -2.5666,2.0067 -3.92,3.36l0,1.54c0.7,-0.7467 1.4467,-1.4233 2.24,-2.03c0.7934,-0.6533 1.5167,-1.2133 2.17,-1.68c0.7,-0.4667 1.2834,-0.8167 1.75,-1.05c0.5134,-0.28 0.8634,-0.42 1.05,-0.42c0.14,0 0.21,0.0467 0.21,0.14c0,0.1867 -0.1866,0.49 -0.56,0.91c-0.3733,0.42 -0.6766,0.7467 -0.91,0.98l-8.68,9.52l4.06,0zm42.5609,-16.94c0.373,0 0.7,-0.1167 0.98,-0.35c0.28,-0.28 0.42,-0.7 0.42,-1.26c0,-0.4667 -0.117,-0.77 -0.35,-0.91c-0.187,-0.14 -0.467,-0.21 -0.84,-0.21c-0.934,0 -1.4,0.5367 -1.4,1.61c0,0.7467 0.396,1.12 1.19,1.12zm-11.83,10.57c0.653,-0.6533 1.236,-1.1667 1.75,-1.54c0.513,-0.42 1.05,-0.8633 1.61,-1.33c-1.074,1.2133 -2.03,2.4967 -2.87,3.85c-0.887,1.3067 -1.33,2.5667 -1.33,3.78c0,0.6533 0.14,1.12 0.42,1.4c0.233,0.2333 0.606,0.35 1.12,0.35c1.166,0 2.66,-0.6533 4.48,-1.96c1.866,-1.3533 4.06,-3.1267 6.58,-5.32l0,-1.54c-0.84,0.7467 -1.797,1.5867 -2.87,2.52c-1.074,0.8867 -2.147,1.7267 -3.22,2.52c-1.074,0.7467 -2.054,1.4 -2.94,1.96c-0.887,0.5133 -1.54,0.77 -1.96,0.77c-0.327,0 -0.49,-0.0933 -0.49,-0.28c0,-0.14 0.14,-0.35 0.42,-0.63c0.233,-0.3267 0.536,-0.7 0.91,-1.12l8.54,-9.59l-4.13,0c-1.027,0.6533 -2.124,1.4467 -3.29,2.38c-1.12,0.8867 -2.03,1.6333 -2.73,2.24l0,1.54z" fill="white" id="svg_1"/>
  <text xml:space="preserve" text-anchor="start" font-family="Oswald, sans-serif" font-size="15" id="svg_3" y="54.07564" x="12.65877" fill-opacity="null" stroke-opacity="null" stroke-width="0" stroke="null" fill="#ffffff">HOME ESTATE</text>
  <g id="svg_17">
   <g transform="matrix(1.3618827297149352,0,0,1.3618827297149352,0,0) " id="svg_15">
    <title transform="translate(-3.5013084698221064e-7,0) translate(-4.405665874481201,0) translate(-19.091217041015625,0) translate(-12.482722282409668,0) translate(-29.371105194091797,0) translate(-44.05665588378906,0) translate(-27.168283462524414,0) translate(-39.650978088378906,0) translate(-39.6510124206543,0) translate(-41.853824615478516,0) translate(-46.259490966796875,0) translate(-4.405643463134766,0) translate(-0.00002240837420686148,0) translate(0.00002240837420686148,0) translate(-0.00002240837420686148,0) translate(0.00002240837420686148,0) translate(-0.00002240837420686148,0) translate(0.00002240837420686148,0) translate(6.608498573303223,0) translate(24.965438842773438,0) translate(31.573936462402344,0) translate(31.573936462402344,0) translate(56.53938674926758,0) translate(39.650978088378906,0) translate(6.608498573303223,0) translate(6.608498573303223,0) translate(29.371110916137695,0) translate(27.168272018432617,0) translate(31.573936462402344,0) translate(29.371105194091797,0) translate(21.294050216674805,0) translate(0.000002801046775857685,0) translate(6.608495712280273,0) translate(12.482725143432617,0) translate(24.96543312072754,0) translate(31.573936462402344,0) translate(46.259490966796875,0) translate(24.965438842773438,0) translate(8.077054023742676,0) translate(6.608498573303223,0) translate(10.279886245727539,0) translate(12.482719421386719,0) translate(14.685574531555176,0) translate(21.294029235839844,0) translate(16.888385772705078,0) translate(19.091217041015625,0) translate(0.00002240837420686148,0) translate(2.202810525894165,0) translate(10.279886245727539,0) translate(12.482741355895996,0) translate(19.091196060180664,0) translate(24.96546173095703,0) translate(33.776771545410156,0) translate(29.371105194091797,0) translate(22.762561798095703,0) translate(10.27993106842041,0) translate(-0.00004481674841372296,0) translate(0.00004481674841372296,0) translate(-0.00004481674841372296,0) translate(0.00004481674841372296,0) translate(-2.2028329372406006,0) translate(-2.2028329372406006,0) translate(-2.2028329372406006,0) translate(-4.405710697174072,0) translate(-4.40562105178833,0) translate(-6.608498573303223,0) translate(-2.2028329372406006,0) translate(-4.405665874481201,0) translate(-4.405665874481201,0) translate(-2.2028329372406006,0) translate(-2.2028329372406006,0) translate(-2.2028777599334717,0) translate(-6.608453750610352,0) translate(-4.405665874481201,0) translate(-4.405710697174072,0) translate(-6.608453750610352,0) translate(-2.2028329372406006,0) translate(-8.077054023742676,0) translate(-8.077054023742676,0) translate(-4.405665874481201,0) translate(-6.608498573303223,0) translate(-2.202855348587036,0) translate(0.00002240837420686148,0) translate(-4.405688285827637,0) translate(-6.608476161956787,0) translate(-2.202855348587036,0) translate(-4.405665874481201,0) translate(-4.405665874481201,0) translate(-8.077054023742676,0) translate(-12.482697486877441,0) translate(-31.573936462402344,0) translate(-27.16829490661621,0) translate(-22.762605667114258,0) translate(-22.762605667114258,0) translate(-10.279886245727539,0) translate(-16.888385772705078,0) translate(2.202855348587036,0) translate(2.202810525894165,0) translate(4.405665874481201,0) translate(4.405665874481201,0) translate(2.202855348587036,0) translate(8.077031135559082,0) translate(6.608498573303223,0) translate(6.608498573303223,0) translate(12.482719421386719,0) translate(10.279909133911133,0) translate(4.405665874481201,0) translate(12.482697486877441,0) translate(2.202855348587036,0) translate(10.279864311218262,0) translate(12.482719421386719,0) translate(8.077054023742676,0) translate(4.405665874481201,0) translate(6.608520984649658,0) translate(10.279886245727539,0) translate(10.279886245727539,0) translate(8.077054023742676,0) translate(8.077031135559082,0) translate(6.928781509399414,0) translate(-0.00002240837420686148,0) translate(0.00002240837420686148,0) translate(-0.00002240837420686148,0) translate(-166.81802368164062,0) translate(-2.4544098377227783,4.806552410125732) translate(18.714874267578125,-10.53350830078125) translate(-1.9430744647979736,12.272049903869629) translate(-1.2272049188613892,4.908819675445557) translate(0.10226708650588989,0) translate(-0.10226708650588989,0) translate(0.10226708650588989,2.6589441299438477) translate(-0.10226708650588989,0) translate(75.7799072265625,-28.737049102783203) translate(72.91642761230469,35.282142639160156) translate(-355.57623291015625,0) translate(0,-278.33880615234375) ">background</title>
    <rect x="-1.73116" y="-268.29088" width="802" height="602" id="svg_13" fill="none"/>
   </g>
   <g transform="matrix(1.3618827297149352,0,0,1.3618827297149352,0,0) " id="svg_16">
    <title transform="translate(-3.5013084698221064e-7,0) translate(-4.405665874481201,0) translate(-19.091217041015625,0) translate(-12.482722282409668,0) translate(-29.371105194091797,0) translate(-44.05665588378906,0) translate(-27.168283462524414,0) translate(-39.650978088378906,0) translate(-39.6510124206543,0) translate(-41.853824615478516,0) translate(-46.259490966796875,0) translate(-4.405643463134766,0) translate(-0.00002240837420686148,0) translate(0.00002240837420686148,0) translate(-0.00002240837420686148,0) translate(0.00002240837420686148,0) translate(-0.00002240837420686148,0) translate(0.00002240837420686148,0) translate(6.608498573303223,0) translate(24.965438842773438,0) translate(31.573936462402344,0) translate(31.573936462402344,0) translate(56.53938674926758,0) translate(39.650978088378906,0) translate(6.608498573303223,0) translate(6.608498573303223,0) translate(29.371110916137695,0) translate(27.168272018432617,0) translate(31.573936462402344,0) translate(29.371105194091797,0) translate(21.294050216674805,0) translate(0.000002801046775857685,0) translate(6.608495712280273,0) translate(12.482725143432617,0) translate(24.96543312072754,0) translate(31.573936462402344,0) translate(46.259490966796875,0) translate(24.965438842773438,0) translate(8.077054023742676,0) translate(6.608498573303223,0) translate(10.279886245727539,0) translate(12.482719421386719,0) translate(14.685574531555176,0) translate(21.294029235839844,0) translate(16.888385772705078,0) translate(19.091217041015625,0) translate(0.00002240837420686148,0) translate(2.202810525894165,0) translate(10.279886245727539,0) translate(12.482741355895996,0) translate(19.091196060180664,0) translate(24.96546173095703,0) translate(33.776771545410156,0) translate(29.371105194091797,0) translate(22.762561798095703,0) translate(10.27993106842041,0) translate(-0.00004481674841372296,0) translate(0.00004481674841372296,0) translate(-0.00004481674841372296,0) translate(0.00004481674841372296,0) translate(-2.2028329372406006,0) translate(-2.2028329372406006,0) translate(-2.2028329372406006,0) translate(-4.405710697174072,0) translate(-4.40562105178833,0) translate(-6.608498573303223,0) translate(-2.2028329372406006,0) translate(-4.405665874481201,0) translate(-4.405665874481201,0) translate(-2.2028329372406006,0) translate(-2.2028329372406006,0) translate(-2.2028777599334717,0) translate(-6.608453750610352,0) translate(-4.405665874481201,0) translate(-4.405710697174072,0) translate(-6.608453750610352,0) translate(-2.2028329372406006,0) translate(-8.077054023742676,0) translate(-8.077054023742676,0) translate(-4.405665874481201,0) translate(-6.608498573303223,0) translate(-2.202855348587036,0) translate(0.00002240837420686148,0) translate(-4.405688285827637,0) translate(-6.608476161956787,0) translate(-2.202855348587036,0) translate(-4.405665874481201,0) translate(-4.405665874481201,0) translate(-8.077054023742676,0) translate(-12.482697486877441,0) translate(-31.573936462402344,0) translate(-27.16829490661621,0) translate(-22.762605667114258,0) translate(-22.762605667114258,0) translate(-10.279886245727539,0) translate(-16.888385772705078,0) translate(2.202855348587036,0) translate(2.202810525894165,0) translate(4.405665874481201,0) translate(4.405665874481201,0) translate(2.202855348587036,0) translate(8.077031135559082,0) translate(6.608498573303223,0) translate(6.608498573303223,0) translate(12.482719421386719,0) translate(10.279909133911133,0) translate(4.405665874481201,0) translate(12.482697486877441,0) translate(2.202855348587036,0) translate(10.279864311218262,0) translate(12.482719421386719,0) translate(8.077054023742676,0) translate(4.405665874481201,0) translate(6.608520984649658,0) translate(10.279886245727539,0) translate(10.279886245727539,0) translate(8.077054023742676,0) translate(8.077031135559082,0) translate(6.928781509399414,0) translate(-0.00002240837420686148,0) translate(0.00002240837420686148,0) translate(-0.00002240837420686148,0) translate(-166.81802368164062,0) translate(-2.4544098377227783,4.806552410125732) translate(18.714874267578125,-10.53350830078125) translate(-1.9430744647979736,12.272049903869629) translate(-1.2272049188613892,4.908819675445557) translate(0.10226708650588989,0) translate(-0.10226708650588989,0) translate(0.10226708650588989,2.6589441299438477) translate(-0.10226708650588989,0) translate(75.7799072265625,-28.737049102783203) translate(72.91642761230469,35.282142639160156) translate(-355.57623291015625,0) translate(0,-278.33880615234375) ">Layer 1</title>
    <path d="m10.57578,-219.47085c5.6933,-1.82 10.43,-4.6433 14.21,-8.47c1.68,-1.68 3.1033,-3.5 4.27,-5.46c1.2133,-1.96 2.38,-3.8967 3.5,-5.81c1.12,-1.96 2.2867,-3.8267 3.5,-5.6c1.2133,-1.82 2.6833,-3.40667 4.41,-4.76c0.6067,1.26 0.91,2.7533 0.91,4.48c0,1.5867 -0.28,3.36 -0.84,5.32c-0.56,1.9133 -1.3533,3.85 -2.38,5.81c-1.0267,1.9133 -2.31,3.8033 -3.85,5.67c-1.4933,1.82 -3.1967,3.43 -5.11,4.83c-1.8667,1.4 -3.9433,2.5433 -6.23,3.43c-2.2867,0.84 -4.7133,1.26 -7.28,1.26c-0.42,0 -0.8633,-0.0233 -1.33,-0.07c-0.42,0 -0.84,-0.0233 -1.26,-0.07c-0.42,-0.0933 -0.84,-0.1867 -1.26,-0.28c-0.42,-0.0933 -0.84,-0.1867 -1.26,-0.28zm-11.34,0.7c-1.49333,0 -2.54333,-0.14 -3.15,-0.42c-0.56,-0.2333 -0.84,-0.4667 -0.84,-0.7c0,-0.3267 0.35,-0.63 1.05,-0.91c0.7,-0.28 1.72667,-0.42 3.08,-0.42c0.56,0 1.16667,0.0467 1.82,0.14c0.7,0.0933 1.3767,0.2333 2.03,0.42c0.6533,0.14 1.26,0.3033 1.82,0.49c0.6067,0.1867 1.12,0.3733 1.54,0.56c-0.7933,0.2333 -1.8667,0.42 -3.22,0.56c-1.35333,0.1867 -2.73,0.28 -4.13,0.28zm27.93,-33.25c0.0467,2.42667 -0.49,4.76 -1.61,7c-1.12,2.24 -2.52,4.2233 -4.2,5.95c-1.68,1.7267 -3.5,3.1033 -5.46,4.13c-1.96,1.0267 -3.7567,1.54 -5.39,1.54c-1.1667,0 -2.17,-0.3267 -3.01,-0.98c-0.84,-0.7 -1.26,-1.7267 -1.26,-3.08c0,-0.98 0.2567,-2.1233 0.77,-3.43c0.5133,-1.3067 1.26,-2.66 2.24,-4.06c0.98,-1.4467 2.1467,-2.84667 3.5,-4.2c1.3533,-1.4 2.8933,-2.63667 4.62,-3.71c1.7267,-1.07333 3.5933,-1.93667 5.6,-2.59c2.0067,-0.7 4.13,-1.05 6.37,-1.05c2.5667,0 4.7367,0.53667 6.51,1.61c1.7733,1.02666 3.15,2.38 4.13,4.06c-3.0333,2.75333 -5.53,5.2967 -7.49,7.63c-1.9133,2.2867 -3.57,4.4333 -4.97,6.44c-1.4,1.96 -2.6833,3.8033 -3.85,5.53c-1.12,1.68 -2.4033,3.2433 -3.85,4.69c-0.8867,0.8867 -1.75,1.6567 -2.59,2.31c-0.7933,0.6533 -1.6333,1.2367 -2.52,1.75c-0.84,0.4667 -1.75,0.91 -2.73,1.33c-0.98,0.3733 -2.0767,0.7467 -3.29,1.12c-1.2133,-0.5133 -2.66,-0.98 -4.34,-1.4c-1.68,-0.4667 -3.47667,-0.7 -5.39,-0.7c-1.44667,0 -2.61333,0.1633 -3.5,0.49c-0.88667,0.3267 -1.33,0.9333 -1.33,1.82c0,0.7933 0.56,1.3067 1.68,1.54c1.16667,0.28 2.59,0.42 4.27,0.42c1.16667,0 2.3567,-0.07 3.57,-0.21c1.2133,-0.14 2.87,-0.4433 4.97,-0.91c0.8867,0.3733 1.9133,0.6533 3.08,0.84c1.1667,0.2333 2.4967,0.35 3.99,0.35c2.8933,0 5.5533,-0.4667 7.98,-1.4c2.4267,-0.8867 4.62,-2.0533 6.58,-3.5c2.0067,-1.4933 3.7567,-3.1967 5.25,-5.11c1.54,-1.9133 2.8233,-3.8733 3.85,-5.88c1.0267,-2.0533 1.7967,-4.06 2.31,-6.02c0.5133,-2.0067 0.77,-3.8267 0.77,-5.46c0,-0.7933 -0.0933,-1.6567 -0.28,-2.59c-0.14,-0.98 -0.3733,-1.86667 -0.7,-2.66c1.0733,-0.79333 2.2633,-1.58667 3.57,-2.38c1.3067,-0.79333 2.5433,-1.44667 3.71,-1.96l-0.42,-0.91c-1.3533,0.46667 -2.66,1.07333 -3.92,1.82c-1.26,0.7 -2.4267,1.44667 -3.5,2.24c-0.9333,-1.86667 -2.38,-3.31333 -4.34,-4.34c-1.96,-1.02667 -4.3867,-1.54 -7.28,-1.54c-3.22,0 -6.3,0.53667 -9.24,1.61c-2.94,1.07333 -5.53,2.52 -7.77,4.34c-2.24,1.77333 -4.0367,3.82667 -5.39,6.16c-1.3067,2.2867 -1.96,4.6433 -1.96,7.07c0,3.92 1.89,5.88 5.67,5.88c2.1933,0 4.3633,-0.6067 6.51,-1.82c2.1933,-1.26 4.13,-2.8467 5.81,-4.76c1.68,-1.9133 2.9867,-4.0133 3.92,-6.3c0.98,-2.3333 1.3767,-4.57333 1.19,-6.72l-0.84,0zm23.293,15.4c0.3734,0 0.7,-0.1167 0.98,-0.35c0.28,-0.28 0.42,-0.7 0.42,-1.26c0,-0.4667 -0.1166,-0.77 -0.35,-0.91c-0.1866,-0.14 -0.4666,-0.21 -0.84,-0.21c-0.9333,0 -1.4,0.5367 -1.4,1.61c0,0.7467 0.3967,1.12 1.19,1.12zm-11.83,10.57c0.6534,-0.6533 1.2367,-1.1667 1.75,-1.54c0.5134,-0.42 1.05,-0.8633 1.61,-1.33c-1.0733,1.2133 -2.03,2.4967 -2.87,3.85c-0.8866,1.3067 -1.33,2.5667 -1.33,3.78c0,0.6533 0.14,1.12 0.42,1.4c0.2334,0.2333 0.6067,0.35 1.12,0.35c1.1667,0 2.66,-0.6533 4.48,-1.96c1.8667,-1.3533 4.06,-3.1267 6.58,-5.32l0,-1.54c-0.84,0.7467 -1.7966,1.5867 -2.87,2.52c-1.0733,0.8867 -2.1466,1.7267 -3.22,2.52c-1.0733,0.7467 -2.0533,1.4 -2.94,1.96c-0.8866,0.5133 -1.54,0.77 -1.96,0.77c-0.3266,0 -0.49,-0.0933 -0.49,-0.28c0,-0.14 0.14,-0.35 0.42,-0.63c0.2334,-0.3267 0.5367,-0.7 0.91,-1.12l8.54,-9.59l-4.13,0c-1.0266,0.6533 -2.1233,1.4467 -3.29,2.38c-1.12,0.8867 -2.03,1.6333 -2.73,2.24l0,1.54zm22.2775,-4.34c0,0.7 -0.4433,1.61 -1.33,2.73c-0.8866,1.12 -1.9133,2.2167 -3.08,3.29c-1.1666,1.0267 -2.3333,1.9367 -3.5,2.73c-1.1666,0.7467 -2.03,1.12 -2.59,1.12c-0.6533,0 -0.98,-0.3267 -0.98,-0.98c0,-0.56 0.3734,-1.3767 1.12,-2.45c0.7934,-1.12 1.7267,-2.2167 2.8,-3.29c1.12,-1.12 2.2634,-2.0767 3.43,-2.87c1.2134,-0.84 2.24,-1.26 3.08,-1.26c0.28,0 0.5134,0.0933 0.7,0.28c0.2334,0.1867 0.35,0.42 0.35,0.7zm7.7,2.03c-0.98,0.8867 -2.03,1.7967 -3.15,2.73c-1.12,0.9333 -2.1933,1.7733 -3.22,2.52c-0.98,0.7467 -1.8666,1.3533 -2.66,1.82c-0.7466,0.4667 -1.2366,0.7 -1.47,0.7c-0.14,0 -0.21,-0.07 -0.21,-0.21c0,-0.28 0.3267,-0.8167 0.98,-1.61l8.61,-9.94l-4.06,0.35l-1.4,1.61c0,-0.6533 -0.14,-1.12 -0.42,-1.4c-0.28,-0.3267 -0.8866,-0.49 -1.82,-0.49c-0.9333,0 -2.0766,0.1867 -3.43,0.56c-1.3533,0.3733 -2.66,0.9567 -3.92,1.75c-1.26,0.7467 -2.3333,1.7033 -3.22,2.87c-0.8866,1.1667 -1.33,2.5433 -1.33,4.13c0,1.26 0.2334,2.1467 0.7,2.66c0.42,0.5133 1.0267,0.77 1.82,0.77c0.98,0 1.9367,-0.3033 2.87,-0.91c0.98,-0.6067 2.1934,-1.5167 3.64,-2.73c-0.28,1.0733 -0.42,1.8667 -0.42,2.38c0,0.8867 0.4667,1.33 1.4,1.33c1.0734,0 2.52,-0.7 4.34,-2.1c1.82,-1.4467 3.9434,-3.1967 6.37,-5.25l0,-1.54zm0.4736,8.68c1.2134,-1.2133 2.59,-2.4967 4.13,-3.85c1.54,-1.4 3.0334,-2.66 4.48,-3.78c1.4467,-1.1667 2.7767,-2.1233 3.99,-2.87c1.2134,-0.7467 2.1,-1.12 2.66,-1.12c0.1867,0 0.28,0.07 0.28,0.21c0,0.1867 -0.1866,0.49 -0.56,0.91c-0.3733,0.42 -0.7933,0.8867 -1.26,1.4l-8.19,9.1l3.92,0c1.3067,-1.4 2.8,-2.8 4.48,-4.2c1.7267,-1.4 3.3834,-2.6367 4.97,-3.71c1.5867,-1.0733 2.9867,-1.9367 4.1999,-2.59c1.213,-0.7 1.983,-1.05 2.31,-1.05c0.233,0 0.35,0.07 0.35,0.21c0,0.1867 -0.163,0.4667 -0.49,0.84c-0.327,0.3267 -0.7,0.7 -1.12,1.12c-0.42,0.42 -0.863,0.84 -1.3299,1.26c-0.42,0.3733 -0.7466,0.6767 -0.98,0.91c-1.2133,1.2133 -2.0533,2.31 -2.52,3.29c-0.42,0.9333 -0.63,1.7967 -0.63,2.59c0,1.0733 0.5834,1.61 1.75,1.61c1.2134,0 2.7529,-0.7 4.6199,-2.1c1.867,-1.4467 4.037,-3.22 6.51,-5.32l0,-1.54c-1.12,0.98 -2.24,1.96 -3.36,2.94c-1.12,0.9333 -2.193,1.7733 -3.22,2.52c-1.027,0.7 -1.9365,1.2833 -2.7299,1.75c-0.7933,0.4667 -1.4233,0.7 -1.89,0.7c-0.42,0 -0.63,-0.0933 -0.63,-0.28c0,-0.28 0.21,-0.63 0.63,-1.05c0.42,-0.42 0.91,-0.8633 1.47,-1.33c0.6067,-0.4667 1.19,-0.91 1.7499,-1.33c0.56,-0.4667 0.98,-0.84 1.26,-1.12c0.98,-0.9333 1.61,-1.82 1.89,-2.66c0.28,-0.84 0.42,-1.5867 0.42,-2.24c0,-0.7 -0.117,-1.1667 -0.35,-1.4c-0.233,-0.28 -0.607,-0.42 -1.12,-0.42c-0.56,0 -1.237,0.1633 -2.03,0.49c-0.7932,0.3267 -1.6565,0.77 -2.5899,1.33c-0.8866,0.56 -1.82,1.19 -2.8,1.89c-0.98,0.7 -1.96,1.4233 -2.94,2.17c0.3734,-0.6067 0.7467,-1.2833 1.12,-2.03c0.3734,-0.7467 0.56,-1.5633 0.56,-2.45c0,-0.5133 -0.1166,-0.8633 -0.35,-1.05c-0.1866,-0.2333 -0.5833,-0.35 -1.19,-0.35c-1.4,0 -2.8466,0.5367 -4.34,1.61c-1.4933,1.0267 -3.0333,2.1467 -4.62,3.36c0.3267,-0.6067 0.5834,-1.2133 0.77,-1.82c0.2334,-0.6067 0.35,-1.1667 0.35,-1.68c0,-1.0267 -0.49,-1.54 -1.47,-1.54c-1.0733,0.0467 -2.2633,0.5133 -3.57,1.4c-1.26,0.8867 -2.5666,2.0067 -3.92,3.36l0,1.54c0.7,-0.7467 1.4467,-1.4233 2.24,-2.03c0.7934,-0.6533 1.5167,-1.2133 2.17,-1.68c0.7,-0.4667 1.2834,-0.8167 1.75,-1.05c0.5134,-0.28 0.8634,-0.42 1.05,-0.42c0.14,0 0.21,0.0467 0.21,0.14c0,0.1867 -0.1866,0.49 -0.56,0.91c-0.3733,0.42 -0.6766,0.7467 -0.91,0.98l-8.68,9.52l4.06,0zm42.5609,-16.94c0.373,0 0.7,-0.1167 0.98,-0.35c0.28,-0.28 0.42,-0.7 0.42,-1.26c0,-0.4667 -0.117,-0.77 -0.35,-0.91c-0.187,-0.14 -0.467,-0.21 -0.84,-0.21c-0.934,0 -1.4,0.5367 -1.4,1.61c0,0.7467 0.396,1.12 1.19,1.12zm-11.83,10.57c0.653,-0.6533 1.236,-1.1667 1.75,-1.54c0.513,-0.42 1.05,-0.8633 1.61,-1.33c-1.074,1.2133 -2.03,2.4967 -2.87,3.85c-0.887,1.3067 -1.33,2.5667 -1.33,3.78c0,0.6533 0.14,1.12 0.42,1.4c0.233,0.2333 0.606,0.35 1.12,0.35c1.166,0 2.66,-0.6533 4.48,-1.96c1.866,-1.3533 4.06,-3.1267 6.58,-5.32l0,-1.54c-0.84,0.7467 -1.797,1.5867 -2.87,2.52c-1.074,0.8867 -2.147,1.7267 -3.22,2.52c-1.074,0.7467 -2.054,1.4 -2.94,1.96c-0.887,0.5133 -1.54,0.77 -1.96,0.77c-0.327,0 -0.49,-0.0933 -0.49,-0.28c0,-0.14 0.14,-0.35 0.42,-0.63c0.233,-0.3267 0.536,-0.7 0.91,-1.12l8.54,-9.59l-4.13,0c-1.027,0.6533 -2.124,1.4467 -3.29,2.38c-1.12,0.8867 -2.03,1.6333 -2.73,2.24l0,1.54z" fill="white" id="svg_12"/>
    <path d="m64.29178,-210.56515l-5.7129,0l0,2.2925l5.2441,0l0,1.875l-5.2441,0l0,2.7759l5.9765,0l0,1.9409l-8.1811,0l0,-10.7959l7.9175,0l0,1.9116zm3.6548,5.5518c0.0683,0.4931 0.2026,0.8618 0.4028,1.1059c0.3662,0.4444 0.9936,0.6665 1.8823,0.6665c0.5322,0 0.9644,-0.0586 1.2964,-0.1757c0.6299,-0.2246 0.9448,-0.6421 0.9448,-1.2525c0,-0.3564 -0.1562,-0.6323 -0.4687,-0.8276c-0.3125,-0.1904 -0.8032,-0.3589 -1.4722,-0.5054l-1.1426,-0.2563c-1.123,-0.2539 -1.8994,-0.5298 -2.3291,-0.8277c-0.7275,-0.498 -1.0913,-1.2768 -1.0913,-2.3364c0,-0.9668 0.3516,-1.77 1.0547,-2.4097c0.7031,-0.6396 1.7359,-0.9594 3.0982,-0.9594c1.1377,0 2.1069,0.3027 2.9077,0.9082c0.8056,0.6005 1.228,1.4746 1.2671,2.622l-2.168,0c-0.0391,-0.6494 -0.3223,-1.1108 -0.8496,-1.3842c-0.3516,-0.1807 -0.7886,-0.271 -1.3111,-0.271c-0.581,0 -1.0449,0.1171 -1.3916,0.3515c-0.3466,0.2344 -0.52,0.5615 -0.52,0.9815c0,0.3857 0.1709,0.6738 0.5127,0.8642c0.2197,0.127 0.6885,0.2759 1.4063,0.4468l1.8603,0.4468c0.8155,0.1953 1.4307,0.4565 1.8457,0.7837c0.6446,0.5078 0.9668,1.2426 0.9668,2.2046c0,0.9863 -0.3784,1.8066 -1.1352,2.4609c-0.752,0.6494 -1.8164,0.9741 -3.1934,0.9741c-1.4062,0 -2.5122,-0.3198 -3.3179,-0.9595c-0.8056,-0.6445 -1.2085,-1.5283 -1.2085,-2.6513l2.1534,0zm16.2158,-7.4634l0,1.9116l-3.23,0l0,8.8843l-2.2705,0l0,-8.8843l-3.2446,0l0,-1.9116l8.7451,0zm3.164,6.7163l2.7393,0l-1.3477,-4.248l-1.3916,4.248zm0.1392,-6.7163l2.5488,0l3.8234,10.7959l-2.4464,0l-0.6958,-2.2192l-3.9771,0l-0.747,2.2192l-2.3584,0l3.8525,-10.7959zm14.4802,0l0,1.9116l-3.23,0l0,8.8843l-2.271,0l0,-8.8843l-3.244,0l0,-1.9116l8.745,0zm9.309,1.9116l-5.713,0l0,2.2925l5.244,0l0,1.875l-5.244,0l0,2.7759l5.977,0l0,1.9409l-8.182,0l0,-10.7959l7.918,0l0,1.9116z" fill="white" id="svg_11"/>
    <text fill="#ffffff" stroke="#ffffff" stroke-width="0" x="4.83362" y="-201.68392" id="svg_10" font-size="15" font-family="Oswald, sans-serif" text-anchor="start" xml:space="preserve" font-weight="bold">HOME</text>
   </g>
  </g>
 </g>
</svg>